<svg width="32" height="32" viewBox="0 0 32 32" fill="none" xmlns="http://www.w3.org/2000/svg">
<path d="M21.3333 22.6667C23.1777 22.6667 24.7501 22.0165 26.0506 20.7161C27.351 19.4156 28.0008 17.8436 27.9999 16.0001C27.999 14.1565 27.3488 12.5845 26.0493 11.2841C24.7497 9.98364 23.1777 9.33341 21.3333 9.33341C20.7333 9.33341 20.1501 9.41119 19.5839 9.56675C19.0177 9.7223 18.4897 9.94453 17.9999 10.2334C18.6444 11.0334 19.139 11.9223 19.4839 12.9001C19.8288 13.8779 20.0008 14.9112 19.9999 16.0001C19.999 17.089 19.827 18.1223 19.4839 19.1001C19.1408 20.0779 18.6461 20.9667 17.9999 21.7667C18.4888 22.0556 19.0168 22.2779 19.5839 22.4334C20.151 22.589 20.7341 22.6667 21.3333 22.6667ZM15.9999 20.0001C16.4221 19.4445 16.7501 18.8276 16.9839 18.1494C17.2177 17.4712 17.3341 16.7547 17.3333 16.0001C17.3324 15.2454 17.2159 14.529 16.9839 13.8507C16.7519 13.1725 16.4239 12.5556 15.9999 12.0001C15.5777 12.5556 15.2501 13.1725 15.0173 13.8507C14.7844 14.529 14.6675 15.2454 14.6666 16.0001C14.6657 16.7547 14.7826 17.4716 15.0173 18.1507C15.2519 18.8299 15.5795 19.4463 15.9999 20.0001ZM10.6666 22.6667C11.2666 22.6667 11.8501 22.589 12.4173 22.4334C12.9844 22.2779 13.5119 22.0556 13.9999 21.7667C13.3555 20.9667 12.8613 20.0779 12.5173 19.1001C12.1733 18.1223 12.0008 17.089 11.9999 16.0001C11.999 14.9112 12.1715 13.8779 12.5173 12.9001C12.863 11.9223 13.3573 11.0334 13.9999 10.2334C13.511 9.94453 12.9835 9.7223 12.4173 9.56675C11.851 9.41119 11.2675 9.33341 10.6666 9.33341C8.82214 9.33341 7.25014 9.98364 5.95059 11.2841C4.65103 12.5845 4.00081 14.1565 3.99992 16.0001C3.99903 17.8436 4.64925 19.4161 5.95059 20.7174C7.25192 22.0187 8.82392 22.6685 10.6666 22.6667ZM10.6666 25.3334C8.06659 25.3334 5.86125 24.4281 4.05059 22.6174C2.23992 20.8067 1.33414 18.601 1.33325 16.0001C1.33236 13.3992 2.23814 11.1939 4.05059 9.38408C5.86303 7.5743 8.06836 6.66853 10.6666 6.66675C11.6666 6.66675 12.6168 6.81119 13.5173 7.10008C14.4177 7.38897 15.2453 7.80008 15.9999 8.33341C16.7555 7.80008 17.5835 7.38897 18.4839 7.10008C19.3844 6.81119 20.3341 6.66675 21.3333 6.66675C23.9333 6.66675 26.139 7.57253 27.9506 9.38408C29.7621 11.1956 30.6675 13.401 30.6666 16.0001C30.6657 18.5992 29.7604 20.805 27.9506 22.6174C26.1408 24.4299 23.935 25.3352 21.3333 25.3334C20.3333 25.3334 19.3835 25.189 18.4839 24.9001C17.5844 24.6112 16.7564 24.2001 15.9999 23.6667C15.2444 24.2001 14.4168 24.6112 13.5173 24.9001C12.6177 25.189 11.6675 25.3334 10.6666 25.3334Z" fill="#00713A"/>
</svg>
