<svg width="32" height="32" viewBox="0 0 32 32" fill="none" xmlns="http://www.w3.org/2000/svg">
<path d="M29.3333 2.66667V29.3333H2.66667V2.66667H29.3333ZM2.66667 0C1.95942 0 1.28115 0.280952 0.781049 0.781049C0.280952 1.28115 0 1.95942 0 2.66667L0 29.3333C0 30.0406 0.280952 30.7189 0.781049 31.219C1.28115 31.719 1.95942 32 2.66667 32H29.3333C30.0406 32 30.7189 31.719 31.219 31.219C31.719 30.7189 32 30.0406 32 29.3333V2.66667C32 1.95942 31.719 1.28115 31.219 0.781049C30.7189 0.280952 30.0406 0 29.3333 0L2.66667 0ZM20.4213 10H25.9413C26.3413 10 26.6667 10.3253 26.6667 10.728V16.2453C26.6661 16.3891 26.623 16.5294 26.5428 16.6487C26.4626 16.7679 26.3489 16.8608 26.216 16.9156C26.0831 16.9703 25.937 16.9845 25.796 16.9564C25.6551 16.9282 25.5257 16.8589 25.424 16.7573L23.6107 14.944L18.2773 20.2773C18.1535 20.4015 18.0063 20.5 17.8444 20.5672C17.6824 20.6345 17.5087 20.6691 17.3333 20.6691C17.158 20.6691 16.9843 20.6345 16.8223 20.5672C16.6603 20.5 16.5132 20.4015 16.3893 20.2773L13.3333 17.2187L7.61067 22.944C7.3603 23.1944 7.02074 23.335 6.66667 23.335C6.3126 23.335 5.97303 23.1944 5.72267 22.944C5.4723 22.6936 5.33165 22.3541 5.33165 22C5.33165 21.6459 5.4723 21.3064 5.72267 21.056L12.3893 14.3893C12.5132 14.2652 12.6603 14.1666 12.8223 14.0994C12.9843 14.0322 13.158 13.9976 13.3333 13.9976C13.5087 13.9976 13.6824 14.0322 13.8444 14.0994C14.0063 14.1666 14.1535 14.2652 14.2773 14.3893L17.3333 17.448L21.7227 13.056L19.9093 11.2427C19.8077 11.141 19.7385 11.0116 19.7103 10.8706C19.6822 10.7297 19.6964 10.5836 19.7511 10.4507C19.8059 10.3178 19.8987 10.2041 20.018 10.1239C20.1373 10.0437 20.2776 10.0006 20.4213 10Z" fill="#00713A"/>
</svg>
