<svg width="32" height="32" viewBox="0 0 32 32" fill="none" xmlns="http://www.w3.org/2000/svg">
<path d="M6.09967 0.701172C9.14886 4.71267 10.8618 9.11755 12.1504 14.457H7.31442L8.0938 15.4101L9.87117 17.5839L15.7735 24.9745L17.2305 23.1347L23.5449 15.41L24.3243 14.4569H19.6504C20.9392 9.11742 22.6519 4.71273 25.7013 0.701172H20.7325C18.0944 5.12205 17.3038 9.82973 16.6269 15.6249H21.8613L15.8204 23.0155L9.77736 15.6249H15.168C14.503 9.82348 13.5925 5.06286 10.9883 0.701172H6.09967ZM6.40436 23.3612C5.99311 23.4652 5.59998 23.5752 5.22848 23.6914C3.87598 24.1142 2.80067 24.6173 2.10348 25.1327C1.40636 25.6482 1.13086 26.1248 1.13086 26.5371C1.13086 26.9493 1.40636 27.4259 2.10348 27.9413C2.80061 28.4567 3.87598 28.9598 5.22848 29.3827C7.93336 30.2285 11.7381 30.7655 15.9394 30.7655C20.1409 30.7655 23.9455 30.2285 26.6504 29.3827C28.0029 28.9598 29.0783 28.4567 29.7754 27.9413C30.4725 27.4259 30.7481 26.9493 30.7481 26.537C30.7481 26.1248 30.4725 25.6482 29.7754 25.1327C29.0782 24.6173 28.0029 24.1142 26.6504 23.6913C26.2789 23.5752 25.8858 23.4652 25.4746 23.3613C26.6529 23.9325 27.3399 24.615 27.3399 25.3495C27.3399 27.3537 22.2358 28.9784 15.9394 28.9784C9.64317 28.9784 4.53911 27.3537 4.53911 25.3495C4.53911 24.6152 5.22598 23.9325 6.40436 23.3612V23.3612ZM10.4004 23.7187C10.0957 23.792 9.8058 23.871 9.53711 23.9549C8.73586 24.2055 8.1038 24.5054 7.71486 24.7929C7.32586 25.0804 7.22067 25.3057 7.22067 25.455C7.22067 25.6044 7.32592 25.8296 7.71486 26.1172C8.10386 26.4047 8.73586 26.7045 9.53717 26.955C11.1398 27.4563 13.4201 27.7794 15.9395 27.7794C18.4589 27.7794 20.7412 27.4563 22.3439 26.955C23.1451 26.7045 23.7752 26.4048 24.1642 26.1172C24.5531 25.8297 24.6583 25.6044 24.6583 25.4551C24.6583 25.3059 24.5532 25.0806 24.1642 24.7931C23.7753 24.5056 23.1452 24.2057 22.3439 23.9552C22.0747 23.871 21.7842 23.7924 21.4787 23.7189C22.0219 24.0181 22.3342 24.3661 22.3342 24.7364C22.3342 25.8606 19.4712 26.7717 15.9396 26.7717C12.4081 26.7717 9.54523 25.8606 9.54523 24.7365C9.54523 24.3663 9.85786 24.0181 10.4006 23.719L10.4004 23.7187Z" fill="#00713A"/>
</svg>
