<svg width="32" height="32" viewBox="0 0 32 32" fill="none" xmlns="http://www.w3.org/2000/svg">
<path d="M28.0001 24H26.6667V9C26.6667 8.73478 26.5263 8.48043 26.2762 8.29289C26.0262 8.10536 25.687 8 25.3334 8C24.9798 8 24.6407 8.10536 24.3906 8.29289C24.1406 8.48043 24.0001 8.73478 24.0001 9V24H21.3334V13C21.3334 12.7348 21.1929 12.4804 20.9429 12.2929C20.6928 12.1054 20.3537 12 20.0001 12C19.6465 12 19.3073 12.1054 19.0573 12.2929C18.8072 12.4804 18.6667 12.7348 18.6667 13V24H16.0001V17C16.0001 16.7348 15.8596 16.4804 15.6096 16.2929C15.3595 16.1054 15.0204 16 14.6667 16C14.3131 16 13.974 16.1054 13.7239 16.2929C13.4739 16.4804 13.3334 16.7348 13.3334 17V24H10.6667V21C10.6667 20.7348 10.5263 20.4804 10.2762 20.2929C10.0262 20.1054 9.68704 20 9.33341 20C8.97979 20 8.64065 20.1054 8.39061 20.2929C8.14056 20.4804 8.00008 20.7348 8.00008 21V24H5.33341V7C5.33341 6.73478 5.19294 6.48043 4.94289 6.29289C4.69284 6.10536 4.3537 6 4.00008 6C3.64646 6 3.30732 6.10536 3.05727 6.29289C2.80722 6.48043 2.66675 6.73478 2.66675 7V25C2.66675 25.2652 2.80722 25.5196 3.05727 25.7071C3.30732 25.8946 3.64646 26 4.00008 26H28.0001C28.3537 26 28.6928 25.8946 28.9429 25.7071C29.1929 25.5196 29.3334 25.2652 29.3334 25C29.3334 24.7348 29.1929 24.4804 28.9429 24.2929C28.6928 24.1054 28.3537 24 28.0001 24Z" fill="#00713A"/>
</svg>
